<mxfile host="Electron" agent="Mozilla/5.0 (Windows NT 10.0; Win64; x64) AppleWebKit/537.36 (KHTML, like Gecko) draw.io/24.7.17 Chrome/128.0.6613.36 Electron/32.0.1 Safari/537.36" version="24.7.17">
  <diagram name="ページ1" id="csbX1CHgTbPyebrUw03X">
    <mxGraphModel dx="794" dy="511" grid="1" gridSize="10" guides="1" tooltips="1" connect="1" arrows="1" fold="1" page="1" pageScale="1" pageWidth="827" pageHeight="1169" math="1" shadow="0">
      <root>
        <mxCell id="0" />
        <mxCell id="1" parent="0" />
        <mxCell id="wFH1GYGM8m3KtPtm4ay0-4" value="推定が収束しない" style="ellipse;whiteSpace=wrap;html=1;fillColor=#647687;strokeColor=#314354;fontColor=#ffffff;" parent="1" vertex="1">
          <mxGeometry x="160" y="40" width="120" height="40" as="geometry" />
        </mxCell>
        <mxCell id="wFH1GYGM8m3KtPtm4ay0-5" value="t値が求まらない" style="ellipse;whiteSpace=wrap;html=1;fillColor=#647687;strokeColor=#314354;fontColor=#ffffff;" parent="1" vertex="1">
          <mxGeometry x="520" y="40" width="120" height="40" as="geometry" />
        </mxCell>
        <mxCell id="wFH1GYGM8m3KtPtm4ay0-6" value="" style="endArrow=classic;html=1;rounded=0;" parent="1" source="wFH1GYGM8m3KtPtm4ay0-4" target="wFH1GYGM8m3KtPtm4ay0-7" edge="1">
          <mxGeometry width="50" height="50" relative="1" as="geometry">
            <mxPoint x="300" y="250" as="sourcePoint" />
            <mxPoint x="220" y="120" as="targetPoint" />
          </mxGeometry>
        </mxCell>
        <mxCell id="wFH1GYGM8m3KtPtm4ay0-7" value="LL(0)を数値計算してみる" style="rounded=0;whiteSpace=wrap;html=1;" parent="1" vertex="1">
          <mxGeometry x="175" y="200" width="90" height="40" as="geometry" />
        </mxCell>
        <mxCell id="wFH1GYGM8m3KtPtm4ay0-8" value="" style="endArrow=classic;html=1;rounded=0;strokeColor=#6600CC;" parent="1" source="wFH1GYGM8m3KtPtm4ay0-7" target="wFH1GYGM8m3KtPtm4ay0-10" edge="1">
          <mxGeometry width="50" height="50" relative="1" as="geometry">
            <mxPoint x="230" y="250" as="sourcePoint" />
            <mxPoint x="360" y="300" as="targetPoint" />
          </mxGeometry>
        </mxCell>
        <mxCell id="wFH1GYGM8m3KtPtm4ay0-9" value="計算に1分以上かかる" style="text;html=1;align=center;verticalAlign=middle;whiteSpace=wrap;rounded=0;fontColor=#6600CC;" parent="1" vertex="1">
          <mxGeometry x="95" y="210" width="80" height="40" as="geometry" />
        </mxCell>
        <mxCell id="wFH1GYGM8m3KtPtm4ay0-10" value="対数尤度関数が複雑すぎる" style="rounded=1;whiteSpace=wrap;html=1;fillColor=#fff2cc;strokeColor=#d6b656;" parent="1" vertex="1">
          <mxGeometry x="40" y="260" width="80" height="40" as="geometry" />
        </mxCell>
        <mxCell id="wFH1GYGM8m3KtPtm4ay0-13" value="" style="endArrow=classic;html=1;rounded=0;" parent="1" source="wFH1GYGM8m3KtPtm4ay0-7" target="u9qrVU421LaHeVuqptxm-9" edge="1">
          <mxGeometry width="50" height="50" relative="1" as="geometry">
            <mxPoint x="230" y="270" as="sourcePoint" />
            <mxPoint x="220" y="300" as="targetPoint" />
          </mxGeometry>
        </mxCell>
        <mxCell id="wFH1GYGM8m3KtPtm4ay0-14" value="計算が1分&lt;div&gt;未満で完了&lt;/div&gt;" style="text;html=1;align=center;verticalAlign=middle;whiteSpace=wrap;rounded=0;" parent="1" vertex="1">
          <mxGeometry x="220" y="250" width="70" height="40" as="geometry" />
        </mxCell>
        <mxCell id="wFH1GYGM8m3KtPtm4ay0-15" value="推定アルゴリズムをBFGS等に変えてみる" style="rounded=1;whiteSpace=wrap;html=1;fillColor=#fff2cc;strokeColor=#d6b656;" parent="1" vertex="1">
          <mxGeometry x="160" y="520" width="120" height="40" as="geometry" />
        </mxCell>
        <mxCell id="wFH1GYGM8m3KtPtm4ay0-16" value="最尤推定値 \(\hat x\) が求められる&lt;div&gt;&lt;/div&gt;" style="rounded=0;whiteSpace=wrap;html=1;" parent="1" vertex="1">
          <mxGeometry x="520" y="100" width="120" height="40" as="geometry" />
        </mxCell>
        <mxCell id="wFH1GYGM8m3KtPtm4ay0-17" value="" style="endArrow=classic;html=1;rounded=0;" parent="1" source="wFH1GYGM8m3KtPtm4ay0-5" target="wFH1GYGM8m3KtPtm4ay0-16" edge="1">
          <mxGeometry width="50" height="50" relative="1" as="geometry">
            <mxPoint x="230" y="90" as="sourcePoint" />
            <mxPoint x="230" y="130" as="targetPoint" />
          </mxGeometry>
        </mxCell>
        <mxCell id="wFH1GYGM8m3KtPtm4ay0-19" value="エラーが出る" style="text;html=1;align=center;verticalAlign=middle;whiteSpace=wrap;rounded=0;fontColor=#FF0000;" parent="1" vertex="1">
          <mxGeometry x="440" y="140" width="100" height="20" as="geometry" />
        </mxCell>
        <mxCell id="wFH1GYGM8m3KtPtm4ay0-20" value="できる" style="text;html=1;align=center;verticalAlign=middle;whiteSpace=wrap;rounded=0;" parent="1" vertex="1">
          <mxGeometry x="580" y="140" width="40" height="20" as="geometry" />
        </mxCell>
        <mxCell id="wFH1GYGM8m3KtPtm4ay0-21" value="" style="endArrow=classic;html=1;rounded=0;" parent="1" source="wFH1GYGM8m3KtPtm4ay0-16" target="u9qrVU421LaHeVuqptxm-12" edge="1">
          <mxGeometry width="50" height="50" relative="1" as="geometry">
            <mxPoint x="230" y="170" as="sourcePoint" />
            <mxPoint x="660" y="210" as="targetPoint" />
          </mxGeometry>
        </mxCell>
        <mxCell id="wFH1GYGM8m3KtPtm4ay0-22" value="hessian(\(\hat x\)) を数値計算してみる" style="rounded=0;whiteSpace=wrap;html=1;" parent="1" vertex="1">
          <mxGeometry x="520" y="420" width="120" height="40" as="geometry" />
        </mxCell>
        <mxCell id="wFH1GYGM8m3KtPtm4ay0-23" value="ヘッセ行列の要素に0がある" style="text;html=1;align=center;verticalAlign=middle;whiteSpace=wrap;rounded=0;fontColor=#FF0000;" parent="1" vertex="1">
          <mxGeometry x="420" y="450" width="100" height="40" as="geometry" />
        </mxCell>
        <mxCell id="wFH1GYGM8m3KtPtm4ay0-24" value="" style="endArrow=classic;html=1;rounded=0;strokeColor=#FF0000;" parent="1" source="wFH1GYGM8m3KtPtm4ay0-22" target="wFH1GYGM8m3KtPtm4ay0-47" edge="1">
          <mxGeometry width="50" height="50" relative="1" as="geometry">
            <mxPoint x="390" y="500" as="sourcePoint" />
            <mxPoint x="400" y="480" as="targetPoint" />
          </mxGeometry>
        </mxCell>
        <mxCell id="wFH1GYGM8m3KtPtm4ay0-27" value="ヘッセ行列の要素に&lt;span style=&quot;background-color: initial;&quot;&gt;0がない&lt;/span&gt;" style="text;html=1;align=center;verticalAlign=middle;whiteSpace=wrap;rounded=0;" parent="1" vertex="1">
          <mxGeometry x="580" y="460" width="100" height="40" as="geometry" />
        </mxCell>
        <mxCell id="wFH1GYGM8m3KtPtm4ay0-29" value="hessian(\(\hat x\))&lt;sup&gt;-1&lt;/sup&gt;の対角成分に正値がある" style="rounded=0;whiteSpace=wrap;html=1;" parent="1" vertex="1">
          <mxGeometry x="520" y="620" width="120" height="40" as="geometry" />
        </mxCell>
        <mxCell id="wFH1GYGM8m3KtPtm4ay0-30" value="" style="endArrow=classic;html=1;rounded=0;" parent="1" source="wFH1GYGM8m3KtPtm4ay0-22" target="wFH1GYGM8m3KtPtm4ay0-39" edge="1">
          <mxGeometry width="50" height="50" relative="1" as="geometry">
            <mxPoint x="430" y="470" as="sourcePoint" />
            <mxPoint x="430" y="510" as="targetPoint" />
          </mxGeometry>
        </mxCell>
        <mxCell id="wFH1GYGM8m3KtPtm4ay0-31" value="ある" style="text;html=1;align=center;verticalAlign=middle;whiteSpace=wrap;rounded=0;fontColor=#FF0000;" parent="1" vertex="1">
          <mxGeometry x="580" y="660" width="40" height="20" as="geometry" />
        </mxCell>
        <mxCell id="wFH1GYGM8m3KtPtm4ay0-33" value="" style="endArrow=classic;html=1;rounded=0;strokeColor=#FF0000;" parent="1" source="wFH1GYGM8m3KtPtm4ay0-29" target="wFH1GYGM8m3KtPtm4ay0-35" edge="1">
          <mxGeometry width="50" height="50" relative="1" as="geometry">
            <mxPoint x="370" y="590" as="sourcePoint" />
            <mxPoint x="540" y="620" as="targetPoint" />
          </mxGeometry>
        </mxCell>
        <mxCell id="wFH1GYGM8m3KtPtm4ay0-35" value="対数尤度関数の符号が逆" style="rounded=1;whiteSpace=wrap;html=1;fillColor=#fff2cc;strokeColor=#d6b656;" parent="1" vertex="1">
          <mxGeometry x="540" y="720" width="80" height="40" as="geometry" />
        </mxCell>
        <mxCell id="wFH1GYGM8m3KtPtm4ay0-39" value="hessian(\(\hat x\)) の逆行列が求められる" style="rounded=0;whiteSpace=wrap;html=1;" parent="1" vertex="1">
          <mxGeometry x="520" y="520" width="120" height="40" as="geometry" />
        </mxCell>
        <mxCell id="wFH1GYGM8m3KtPtm4ay0-40" value="" style="endArrow=classic;html=1;rounded=0;" parent="1" source="wFH1GYGM8m3KtPtm4ay0-39" target="wFH1GYGM8m3KtPtm4ay0-29" edge="1">
          <mxGeometry width="50" height="50" relative="1" as="geometry">
            <mxPoint x="430" y="550" as="sourcePoint" />
            <mxPoint x="530" y="550" as="targetPoint" />
          </mxGeometry>
        </mxCell>
        <mxCell id="wFH1GYGM8m3KtPtm4ay0-41" value="できる" style="text;html=1;align=center;verticalAlign=middle;whiteSpace=wrap;rounded=0;" parent="1" vertex="1">
          <mxGeometry x="540" y="560" width="40" height="20" as="geometry" />
        </mxCell>
        <mxCell id="wFH1GYGM8m3KtPtm4ay0-44" value="" style="endArrow=classic;html=1;rounded=0;strokeColor=#FF0000;" parent="1" source="wFH1GYGM8m3KtPtm4ay0-39" target="A0bKrF_H1_ddprq1EIHs-3" edge="1">
          <mxGeometry width="50" height="50" relative="1" as="geometry">
            <mxPoint x="650" y="480" as="sourcePoint" />
            <mxPoint x="673.3333333333333" y="580" as="targetPoint" />
            <Array as="points">
              <mxPoint x="740" y="580" />
            </Array>
          </mxGeometry>
        </mxCell>
        <mxCell id="wFH1GYGM8m3KtPtm4ay0-45" value="エラーが出る" style="text;html=1;align=center;verticalAlign=middle;whiteSpace=wrap;rounded=0;fontColor=#FF0000;" parent="1" vertex="1">
          <mxGeometry x="600" y="560" width="80" height="20" as="geometry" />
        </mxCell>
        <mxCell id="wFH1GYGM8m3KtPtm4ay0-47" value="対数尤度関数の中で使用していないパラメタがある" style="rounded=0;whiteSpace=wrap;html=1;" parent="1" vertex="1">
          <mxGeometry x="320" y="520" width="160" height="40" as="geometry" />
        </mxCell>
        <mxCell id="wFH1GYGM8m3KtPtm4ay0-49" value="ある" style="text;html=1;align=center;verticalAlign=middle;whiteSpace=wrap;rounded=0;fontColor=#FF0000;" parent="1" vertex="1">
          <mxGeometry x="340" y="560" width="40" height="20" as="geometry" />
        </mxCell>
        <mxCell id="wFH1GYGM8m3KtPtm4ay0-50" value="ない" style="text;html=1;align=center;verticalAlign=middle;whiteSpace=wrap;rounded=0;" parent="1" vertex="1">
          <mxGeometry x="400" y="560" width="40" height="20" as="geometry" />
        </mxCell>
        <mxCell id="wFH1GYGM8m3KtPtm4ay0-51" value="全てのパラメタを&lt;div&gt;使用するようにする&lt;/div&gt;" style="rounded=1;whiteSpace=wrap;html=1;fillColor=#fff2cc;strokeColor=#d6b656;" parent="1" vertex="1">
          <mxGeometry x="157.5" y="600" width="120" height="40" as="geometry" />
        </mxCell>
        <mxCell id="wFH1GYGM8m3KtPtm4ay0-52" value="" style="endArrow=classic;html=1;rounded=0;strokeColor=#FF0000;" parent="1" source="wFH1GYGM8m3KtPtm4ay0-47" target="wFH1GYGM8m3KtPtm4ay0-51" edge="1">
          <mxGeometry width="50" height="50" relative="1" as="geometry">
            <mxPoint x="365.7142857142858" y="580" as="sourcePoint" />
            <mxPoint x="300" y="540" as="targetPoint" />
          </mxGeometry>
        </mxCell>
        <mxCell id="wFH1GYGM8m3KtPtm4ay0-53" value="" style="endArrow=classic;html=1;rounded=0;" parent="1" source="wFH1GYGM8m3KtPtm4ay0-47" target="u9qrVU421LaHeVuqptxm-1" edge="1">
          <mxGeometry width="50" height="50" relative="1" as="geometry">
            <mxPoint x="430" y="580" as="sourcePoint" />
            <mxPoint x="410" y="600" as="targetPoint" />
          </mxGeometry>
        </mxCell>
        <mxCell id="wFH1GYGM8m3KtPtm4ay0-55" value="全データが同じ値になっているような説明変数がある" style="rounded=0;whiteSpace=wrap;html=1;" parent="1" vertex="1">
          <mxGeometry x="320" y="720" width="160" height="40" as="geometry" />
        </mxCell>
        <mxCell id="wFH1GYGM8m3KtPtm4ay0-56" value="データにNaNなどが含まれている" style="rounded=1;whiteSpace=wrap;html=1;fillColor=#fff2cc;strokeColor=#d6b656;" parent="1" vertex="1">
          <mxGeometry x="320" y="260" width="100" height="40" as="geometry" />
        </mxCell>
        <mxCell id="wFH1GYGM8m3KtPtm4ay0-58" value="" style="endArrow=classic;html=1;rounded=0;strokeColor=#FF0000;" parent="1" source="wFH1GYGM8m3KtPtm4ay0-7" target="wFH1GYGM8m3KtPtm4ay0-56" edge="1">
          <mxGeometry width="50" height="50" relative="1" as="geometry">
            <mxPoint x="250" y="330" as="sourcePoint" />
            <mxPoint x="290" y="370" as="targetPoint" />
          </mxGeometry>
        </mxCell>
        <mxCell id="wFH1GYGM8m3KtPtm4ay0-59" value="エラーが出る" style="text;html=1;align=center;verticalAlign=middle;whiteSpace=wrap;rounded=0;fontColor=#FF0000;" parent="1" vertex="1">
          <mxGeometry x="265" y="210" width="55" height="40" as="geometry" />
        </mxCell>
        <mxCell id="wFH1GYGM8m3KtPtm4ay0-61" value="" style="endArrow=classic;html=1;rounded=0;strokeColor=#FF0000;" parent="1" source="wFH1GYGM8m3KtPtm4ay0-16" target="wFH1GYGM8m3KtPtm4ay0-7" edge="1">
          <mxGeometry width="50" height="50" relative="1" as="geometry">
            <mxPoint x="300" y="350" as="sourcePoint" />
            <mxPoint x="170" y="200" as="targetPoint" />
            <Array as="points">
              <mxPoint x="520" y="160" />
              <mxPoint x="280" y="160" />
            </Array>
          </mxGeometry>
        </mxCell>
        <mxCell id="wFH1GYGM8m3KtPtm4ay0-62" value="" style="endArrow=classic;html=1;rounded=0;strokeColor=#FF0000;" parent="1" source="wFH1GYGM8m3KtPtm4ay0-55" target="EiS7PpM1qMPfqrUUcOb0-3" edge="1">
          <mxGeometry width="50" height="50" relative="1" as="geometry">
            <mxPoint x="414" y="610" as="sourcePoint" />
            <mxPoint x="190" y="810" as="targetPoint" />
          </mxGeometry>
        </mxCell>
        <mxCell id="wFH1GYGM8m3KtPtm4ay0-63" value="ある" style="text;html=1;align=center;verticalAlign=middle;whiteSpace=wrap;rounded=0;fontColor=#FF0000;" parent="1" vertex="1">
          <mxGeometry x="340" y="760" width="40" height="20" as="geometry" />
        </mxCell>
        <mxCell id="wFH1GYGM8m3KtPtm4ay0-64" value="ない" style="text;html=1;align=center;verticalAlign=middle;whiteSpace=wrap;rounded=0;" parent="1" vertex="1">
          <mxGeometry x="400" y="760" width="40" height="20" as="geometry" />
        </mxCell>
        <mxCell id="wFH1GYGM8m3KtPtm4ay0-65" value="" style="endArrow=classic;html=1;rounded=0;" parent="1" source="wFH1GYGM8m3KtPtm4ay0-55" target="wFH1GYGM8m3KtPtm4ay0-66" edge="1">
          <mxGeometry width="50" height="50" relative="1" as="geometry">
            <mxPoint x="434" y="690" as="sourcePoint" />
            <mxPoint x="480" y="820" as="targetPoint" />
          </mxGeometry>
        </mxCell>
        <mxCell id="wFH1GYGM8m3KtPtm4ay0-66" value="対数尤度関数の実装にバグがある" style="rounded=1;whiteSpace=wrap;html=1;fillColor=#fff2cc;strokeColor=#d6b656;" parent="1" vertex="1">
          <mxGeometry x="340" y="820" width="120" height="40" as="geometry" />
        </mxCell>
        <mxCell id="EiS7PpM1qMPfqrUUcOb0-1" value="各パラメタiの値を微小に増やしたときの対数尤度&lt;div&gt;LL(\(\hat x + \varepsilon \vec{e}_i)\)を計算してみる&lt;/div&gt;" style="rounded=0;whiteSpace=wrap;html=1;" parent="1" vertex="1">
          <mxGeometry x="500" y="300" width="160" height="60" as="geometry" />
        </mxCell>
        <mxCell id="EiS7PpM1qMPfqrUUcOb0-2" value="" style="endArrow=classic;html=1;rounded=0;" parent="1" source="EiS7PpM1qMPfqrUUcOb0-1" target="wFH1GYGM8m3KtPtm4ay0-22" edge="1">
          <mxGeometry width="50" height="50" relative="1" as="geometry">
            <mxPoint x="570" y="370" as="sourcePoint" />
            <mxPoint x="390" y="312" as="targetPoint" />
          </mxGeometry>
        </mxCell>
        <mxCell id="EiS7PpM1qMPfqrUUcOb0-3" value="無意味な説明変数が存在する" style="rounded=1;whiteSpace=wrap;html=1;fillColor=#fff2cc;strokeColor=#d6b656;" parent="1" vertex="1">
          <mxGeometry x="170" y="800" width="100" height="40" as="geometry" />
        </mxCell>
        <mxCell id="EiS7PpM1qMPfqrUUcOb0-4" value="|LL(\(\hat x + \varepsilon \vec{e}_i)\) - LL(\(\hat x\))| の値が十分小さい" style="text;html=1;align=center;verticalAlign=middle;whiteSpace=wrap;rounded=0;" parent="1" vertex="1">
          <mxGeometry x="580" y="360" width="120" height="40" as="geometry" />
        </mxCell>
        <mxCell id="EiS7PpM1qMPfqrUUcOb0-6" value="" style="endArrow=classic;html=1;rounded=0;strokeColor=#6600CC;" parent="1" source="EiS7PpM1qMPfqrUUcOb0-1" target="wFH1GYGM8m3KtPtm4ay0-47" edge="1">
          <mxGeometry width="50" height="50" relative="1" as="geometry">
            <mxPoint x="390" y="450" as="sourcePoint" />
            <mxPoint x="440" y="400" as="targetPoint" />
            <Array as="points">
              <mxPoint x="400" y="420" />
            </Array>
          </mxGeometry>
        </mxCell>
        <mxCell id="EiS7PpM1qMPfqrUUcOb0-8" value="|LL(\(\hat x + \varepsilon \vec{e}_i)\) - LL(\(\hat x\))| の値が大きい" style="text;html=1;align=center;verticalAlign=middle;whiteSpace=wrap;rounded=0;fontColor=#FF0000;" parent="1" vertex="1">
          <mxGeometry x="660" y="320" width="120" height="40" as="geometry" />
        </mxCell>
        <mxCell id="EiS7PpM1qMPfqrUUcOb0-9" value="対数尤度関数が連続関数でない" style="rounded=1;whiteSpace=wrap;html=1;fillColor=#fff2cc;strokeColor=#d6b656;" parent="1" vertex="1">
          <mxGeometry x="680" y="420" width="100" height="40" as="geometry" />
        </mxCell>
        <mxCell id="EiS7PpM1qMPfqrUUcOb0-10" value="" style="endArrow=classic;html=1;rounded=0;strokeColor=#FF0000;" parent="1" source="EiS7PpM1qMPfqrUUcOb0-1" target="EiS7PpM1qMPfqrUUcOb0-9" edge="1">
          <mxGeometry width="50" height="50" relative="1" as="geometry">
            <mxPoint x="545" y="450" as="sourcePoint" />
            <mxPoint x="455" y="490" as="targetPoint" />
            <Array as="points">
              <mxPoint x="730" y="360" />
            </Array>
          </mxGeometry>
        </mxCell>
        <mxCell id="EiS7PpM1qMPfqrUUcOb0-12" value="各パラメタiの値を微小に増やしたときの対数尤度&lt;div&gt;LL(\(\varepsilon \vec{e}_i)\)を計算してみる&lt;/div&gt;" style="rounded=0;whiteSpace=wrap;html=1;" parent="1" vertex="1">
          <mxGeometry x="140" y="400" width="160" height="60" as="geometry" />
        </mxCell>
        <mxCell id="EiS7PpM1qMPfqrUUcOb0-14" value="|LL(\(\hat x + \varepsilon \vec{e}_i)\) - LL(\(\hat x\))| の値が十分小さい" style="text;html=1;align=center;verticalAlign=middle;whiteSpace=wrap;rounded=0;" parent="1" vertex="1">
          <mxGeometry x="100" y="460" width="120" height="40" as="geometry" />
        </mxCell>
        <mxCell id="EiS7PpM1qMPfqrUUcOb0-15" value="" style="endArrow=classic;html=1;rounded=0;" parent="1" source="EiS7PpM1qMPfqrUUcOb0-12" target="wFH1GYGM8m3KtPtm4ay0-15" edge="1">
          <mxGeometry width="50" height="50" relative="1" as="geometry">
            <mxPoint x="590" y="370" as="sourcePoint" />
            <mxPoint x="590" y="430" as="targetPoint" />
          </mxGeometry>
        </mxCell>
        <mxCell id="EiS7PpM1qMPfqrUUcOb0-16" value="|LL(\(\varepsilon \vec{e}_i)\) - LL(0)| の値が大きい" style="text;html=1;align=center;verticalAlign=middle;whiteSpace=wrap;rounded=0;fontColor=#FF0000;" parent="1" vertex="1">
          <mxGeometry x="20" y="420" width="120" height="40" as="geometry" />
        </mxCell>
        <mxCell id="EiS7PpM1qMPfqrUUcOb0-17" value="対数尤度関数が連続関数でない" style="rounded=1;whiteSpace=wrap;html=1;fillColor=#fff2cc;strokeColor=#d6b656;" parent="1" vertex="1">
          <mxGeometry x="30" y="520" width="100" height="40" as="geometry" />
        </mxCell>
        <mxCell id="EiS7PpM1qMPfqrUUcOb0-18" value="" style="endArrow=classic;html=1;rounded=0;strokeColor=#FF0000;" parent="1" source="EiS7PpM1qMPfqrUUcOb0-12" target="EiS7PpM1qMPfqrUUcOb0-17" edge="1">
          <mxGeometry width="50" height="50" relative="1" as="geometry">
            <mxPoint x="40" y="447" as="sourcePoint" />
            <mxPoint x="-165" y="590" as="targetPoint" />
            <Array as="points">
              <mxPoint x="80" y="460" />
            </Array>
          </mxGeometry>
        </mxCell>
        <mxCell id="EiS7PpM1qMPfqrUUcOb0-19" value="LL(\(\hat x + \varepsilon \vec{e}_i)\) が LL(\(\hat x\)) と&lt;div&gt;一致&lt;/div&gt;" style="text;html=1;align=center;verticalAlign=middle;whiteSpace=wrap;rounded=0;fontColor=#6600CC;" parent="1" vertex="1">
          <mxGeometry x="500" y="360" width="80" height="50" as="geometry" />
        </mxCell>
        <mxCell id="EiS7PpM1qMPfqrUUcOb0-20" value="&lt;span style=&quot;&quot;&gt;LL(\(\varepsilon \vec{e}_i)\) が LL(0) と一致&lt;/span&gt;" style="text;html=1;align=center;verticalAlign=middle;whiteSpace=wrap;rounded=0;fontColor=#6600CC;" parent="1" vertex="1">
          <mxGeometry x="300" y="450" width="80" height="40" as="geometry" />
        </mxCell>
        <mxCell id="EiS7PpM1qMPfqrUUcOb0-22" value="" style="endArrow=classic;html=1;rounded=0;strokeColor=#6600CC;" parent="1" source="EiS7PpM1qMPfqrUUcOb0-12" target="wFH1GYGM8m3KtPtm4ay0-47" edge="1">
          <mxGeometry width="50" height="50" relative="1" as="geometry">
            <mxPoint x="350" y="570" as="sourcePoint" />
            <mxPoint x="290" y="590" as="targetPoint" />
          </mxGeometry>
        </mxCell>
        <mxCell id="u9qrVU421LaHeVuqptxm-1" value="選択肢固有定数項を全ての選択肢につけている" style="rounded=0;whiteSpace=wrap;html=1;" parent="1" vertex="1">
          <mxGeometry x="320" y="620" width="160" height="40" as="geometry" />
        </mxCell>
        <mxCell id="u9qrVU421LaHeVuqptxm-2" value="" style="endArrow=classic;html=1;rounded=0;" parent="1" source="u9qrVU421LaHeVuqptxm-1" target="wFH1GYGM8m3KtPtm4ay0-55" edge="1">
          <mxGeometry width="50" height="50" relative="1" as="geometry">
            <mxPoint x="410" y="570" as="sourcePoint" />
            <mxPoint x="410" y="630" as="targetPoint" />
          </mxGeometry>
        </mxCell>
        <mxCell id="u9qrVU421LaHeVuqptxm-3" value="いいえ" style="text;html=1;align=center;verticalAlign=middle;whiteSpace=wrap;rounded=0;" parent="1" vertex="1">
          <mxGeometry x="400" y="660" width="40" height="20" as="geometry" />
        </mxCell>
        <mxCell id="u9qrVU421LaHeVuqptxm-4" value="はい" style="text;html=1;align=center;verticalAlign=middle;whiteSpace=wrap;rounded=0;fontColor=#FF0000;" parent="1" vertex="1">
          <mxGeometry x="340" y="660" width="40" height="20" as="geometry" />
        </mxCell>
        <mxCell id="u9qrVU421LaHeVuqptxm-6" value="" style="endArrow=classic;html=1;rounded=0;strokeColor=#FF0000;" parent="1" source="u9qrVU421LaHeVuqptxm-1" target="u9qrVU421LaHeVuqptxm-7" edge="1">
          <mxGeometry width="50" height="50" relative="1" as="geometry">
            <mxPoint x="352.5" y="660" as="sourcePoint" />
            <mxPoint x="187.5" y="710" as="targetPoint" />
          </mxGeometry>
        </mxCell>
        <mxCell id="u9qrVU421LaHeVuqptxm-7" value="選択肢固有定数項をつけない選択肢を用意する" style="rounded=1;whiteSpace=wrap;html=1;fillColor=#fff2cc;strokeColor=#d6b656;" parent="1" vertex="1">
          <mxGeometry x="120" y="700" width="157.5" height="40" as="geometry" />
        </mxCell>
        <mxCell id="u9qrVU421LaHeVuqptxm-9" value="説明変数のオーダーが±10以内に収まっている" style="rounded=0;whiteSpace=wrap;html=1;" parent="1" vertex="1">
          <mxGeometry x="140" y="300" width="160" height="40" as="geometry" />
        </mxCell>
        <mxCell id="u9qrVU421LaHeVuqptxm-10" value="" style="endArrow=classic;html=1;rounded=0;" parent="1" source="u9qrVU421LaHeVuqptxm-9" target="EiS7PpM1qMPfqrUUcOb0-12" edge="1">
          <mxGeometry width="50" height="50" relative="1" as="geometry">
            <mxPoint x="230" y="90" as="sourcePoint" />
            <mxPoint x="230" y="210" as="targetPoint" />
          </mxGeometry>
        </mxCell>
        <mxCell id="u9qrVU421LaHeVuqptxm-11" value="はい" style="text;html=1;align=center;verticalAlign=middle;whiteSpace=wrap;rounded=0;" parent="1" vertex="1">
          <mxGeometry x="180" y="340" width="40" height="20" as="geometry" />
        </mxCell>
        <mxCell id="u9qrVU421LaHeVuqptxm-12" value="説明変数のオーダーが±10以内に収まっている" style="rounded=0;whiteSpace=wrap;html=1;" parent="1" vertex="1">
          <mxGeometry x="500" y="200" width="160" height="40" as="geometry" />
        </mxCell>
        <mxCell id="u9qrVU421LaHeVuqptxm-13" value="" style="endArrow=classic;html=1;rounded=0;" parent="1" source="u9qrVU421LaHeVuqptxm-12" target="EiS7PpM1qMPfqrUUcOb0-1" edge="1">
          <mxGeometry width="50" height="50" relative="1" as="geometry">
            <mxPoint x="590" y="150" as="sourcePoint" />
            <mxPoint x="590" y="210" as="targetPoint" />
          </mxGeometry>
        </mxCell>
        <mxCell id="u9qrVU421LaHeVuqptxm-14" value="説明変数を10,100などで割ってオーダーを揃える" style="rounded=1;whiteSpace=wrap;html=1;fillColor=#fff2cc;strokeColor=#d6b656;" parent="1" vertex="1">
          <mxGeometry x="330" y="340" width="140" height="40" as="geometry" />
        </mxCell>
        <mxCell id="u9qrVU421LaHeVuqptxm-15" value="" style="endArrow=classic;html=1;rounded=0;strokeColor=#FF0000;" parent="1" source="u9qrVU421LaHeVuqptxm-9" target="u9qrVU421LaHeVuqptxm-14" edge="1">
          <mxGeometry width="50" height="50" relative="1" as="geometry">
            <mxPoint x="275" y="248" as="sourcePoint" />
            <mxPoint x="330" y="270" as="targetPoint" />
            <Array as="points">
              <mxPoint x="360" y="320" />
            </Array>
          </mxGeometry>
        </mxCell>
        <mxCell id="u9qrVU421LaHeVuqptxm-16" value="いいえ" style="text;html=1;align=center;verticalAlign=middle;whiteSpace=wrap;rounded=0;fontColor=#FF0000;" parent="1" vertex="1">
          <mxGeometry x="300" y="320" width="55" height="20" as="geometry" />
        </mxCell>
        <mxCell id="u9qrVU421LaHeVuqptxm-17" value="はい" style="text;html=1;align=center;verticalAlign=middle;whiteSpace=wrap;rounded=0;" parent="1" vertex="1">
          <mxGeometry x="580" y="240" width="40" height="20" as="geometry" />
        </mxCell>
        <mxCell id="u9qrVU421LaHeVuqptxm-20" value="" style="endArrow=classic;html=1;rounded=0;strokeColor=#FF0000;" parent="1" source="u9qrVU421LaHeVuqptxm-12" target="u9qrVU421LaHeVuqptxm-14" edge="1">
          <mxGeometry width="50" height="50" relative="1" as="geometry">
            <mxPoint x="554" y="470" as="sourcePoint" />
            <mxPoint x="446" y="530" as="targetPoint" />
            <Array as="points">
              <mxPoint x="400" y="320" />
            </Array>
          </mxGeometry>
        </mxCell>
        <mxCell id="u9qrVU421LaHeVuqptxm-21" value="いいえ" style="text;html=1;align=center;verticalAlign=middle;whiteSpace=wrap;rounded=0;fontColor=#FF0000;" parent="1" vertex="1">
          <mxGeometry x="470" y="240" width="55" height="20" as="geometry" />
        </mxCell>
        <mxCell id="A0bKrF_H1_ddprq1EIHs-1" value="推定アルゴリズムをBFGS等に変えてみる" style="rounded=1;whiteSpace=wrap;html=1;fillColor=#fff2cc;strokeColor=#d6b656;" vertex="1" parent="1">
          <mxGeometry x="680" y="800" width="120" height="40" as="geometry" />
        </mxCell>
        <mxCell id="A0bKrF_H1_ddprq1EIHs-3" value="説明変数同士が強く相関している" style="rounded=0;whiteSpace=wrap;html=1;" vertex="1" parent="1">
          <mxGeometry x="680" y="700" width="120" height="40" as="geometry" />
        </mxCell>
        <mxCell id="A0bKrF_H1_ddprq1EIHs-4" value="" style="endArrow=classic;html=1;rounded=0;" edge="1" parent="1" source="A0bKrF_H1_ddprq1EIHs-3" target="A0bKrF_H1_ddprq1EIHs-1">
          <mxGeometry width="50" height="50" relative="1" as="geometry">
            <mxPoint x="590" y="570" as="sourcePoint" />
            <mxPoint x="590" y="630" as="targetPoint" />
          </mxGeometry>
        </mxCell>
        <mxCell id="A0bKrF_H1_ddprq1EIHs-5" value="いいえ" style="text;html=1;align=center;verticalAlign=middle;whiteSpace=wrap;rounded=0;" vertex="1" parent="1">
          <mxGeometry x="740" y="740" width="40" height="20" as="geometry" />
        </mxCell>
        <mxCell id="A0bKrF_H1_ddprq1EIHs-6" value="" style="endArrow=classic;html=1;rounded=0;strokeColor=#FF0000;" edge="1" parent="1" source="A0bKrF_H1_ddprq1EIHs-3" target="A0bKrF_H1_ddprq1EIHs-8">
          <mxGeometry width="50" height="50" relative="1" as="geometry">
            <mxPoint x="622" y="650" as="sourcePoint" />
            <mxPoint x="600" y="880" as="targetPoint" />
          </mxGeometry>
        </mxCell>
        <mxCell id="A0bKrF_H1_ddprq1EIHs-7" value="はい" style="text;html=1;align=center;verticalAlign=middle;whiteSpace=wrap;rounded=0;fontColor=#FF0000;" vertex="1" parent="1">
          <mxGeometry x="690" y="740" width="40" height="20" as="geometry" />
        </mxCell>
        <mxCell id="A0bKrF_H1_ddprq1EIHs-8" value="相関が強い説明変数を1つ残して捨てる" style="rounded=1;whiteSpace=wrap;html=1;fillColor=#fff2cc;strokeColor=#d6b656;" vertex="1" parent="1">
          <mxGeometry x="520" y="800" width="120" height="40" as="geometry" />
        </mxCell>
        <mxCell id="A0bKrF_H1_ddprq1EIHs-9" style="edgeStyle=orthogonalEdgeStyle;rounded=0;orthogonalLoop=1;jettySize=auto;html=1;exitX=0.5;exitY=1;exitDx=0;exitDy=0;" edge="1" parent="1" source="wFH1GYGM8m3KtPtm4ay0-45" target="wFH1GYGM8m3KtPtm4ay0-45">
          <mxGeometry relative="1" as="geometry" />
        </mxCell>
      </root>
    </mxGraphModel>
  </diagram>
</mxfile>
